<svg width="1160" height="814" viewBox="0 0 1160 814" fill="none" xmlns="http://www.w3.org/2000/svg">
<path d="M1132 687.208H0V687.733H1132V687.208Z" fill="#EBEBEB"/>
<path d="M1018.57 720.982H943.59V721.507H1018.57V720.982Z" fill="#EBEBEB"/>
<path d="M749.882 726.691H730.208V727.216H749.882V726.691Z" fill="#EBEBEB"/>
<path d="M941.326 701.503H897.88V702.027H941.326V701.503Z" fill="#EBEBEB"/>
<path d="M216.552 705.03H118.77V705.555H216.552V705.03Z" fill="#EBEBEB"/>
<path d="M251.055 705.03H236.724V705.555H251.055V705.03Z" fill="#EBEBEB"/>
<path d="M509.74 713.887H297.648V714.412H509.74V713.887Z" fill="#EBEBEB"/>
<path d="M1026.29 593.594H589.116C585.689 593.589 582.404 592.324 579.981 590.078C577.558 587.831 576.194 584.786 576.188 581.609V11.8803C576.224 8.72154 577.601 5.70312 580.021 3.47927C582.441 1.25542 585.708 0.00534883 589.116 0H1026.29C1029.7 0.0109242 1032.95 1.26411 1035.37 3.48795C1037.78 5.71178 1039.15 8.72708 1039.18 11.8803V581.609C1039.18 584.78 1037.82 587.823 1035.41 590.069C1032.99 592.315 1029.71 593.583 1026.29 593.594ZM589.116 0.4198C585.839 0.425348 582.698 1.63457 580.381 3.78262C578.064 5.93068 576.76 8.84248 576.754 11.8803V581.609C576.76 584.647 578.064 587.559 580.381 589.707C582.698 591.855 585.839 593.064 589.116 593.069H1026.29C1029.57 593.064 1032.71 591.855 1035.03 589.707C1037.35 587.559 1038.65 584.647 1038.66 581.609V11.8803C1038.65 8.84248 1037.35 5.93068 1035.03 3.78262C1032.71 1.63457 1029.57 0.425348 1026.29 0.4198H589.116Z" fill="#EBEBEB"/>
<path d="M548.657 249.528H227.215V686.475H548.657V249.528Z" fill="#F0F0F0"/>
<path d="M537.293 263.277H238.558V343.983H537.293V263.277Z" fill="#E0E0E0"/>
<path d="M255.538 276.332H238.558V343.961H255.538V276.332Z" fill="#EBEBEB"/>
<path d="M337.608 276.332H320.628V343.961H337.608V276.332Z" fill="#EBEBEB"/>
<path d="M430.753 274.634L414.02 277.308L426.411 343.954L443.144 341.28L430.753 274.634Z" fill="#EBEBEB"/>
<path d="M276.57 285.252H259.59V343.982H276.57V285.252Z" fill="#EBEBEB"/>
<path d="M315.579 285.252H298.599V343.982H315.579V285.252Z" fill="#EBEBEB"/>
<path d="M414.04 285.252H397.06V343.982H414.04V285.252Z" fill="#EBEBEB"/>
<path d="M359.911 283.215L343.335 286.63L357.079 343.961L373.654 340.545L359.911 283.215Z" fill="#EBEBEB"/>
<path d="M291.241 272.973H282.751V343.961H291.241V272.973Z" fill="#EBEBEB"/>
<path d="M392.17 272.973H383.68V343.961H392.17V272.973Z" fill="#EBEBEB"/>
<path d="M238.58 437.472L537.315 437.472V356.766H238.58V437.472Z" fill="#E0E0E0"/>
<path d="M520.312 437.451H537.292V369.821H520.312V437.451Z" fill="#EBEBEB"/>
<path d="M438.265 437.451H455.245V369.821H438.265V437.451Z" fill="#EBEBEB"/>
<path d="M332.733 434.763L349.467 437.437L361.858 370.79L345.124 368.116L332.733 434.763Z" fill="#EBEBEB"/>
<path d="M499.28 437.472H516.26V378.742H499.28V437.472Z" fill="#EBEBEB"/>
<path d="M460.294 437.472H477.274V378.742H460.294V437.472Z" fill="#EBEBEB"/>
<path d="M361.832 437.472H378.812V378.742H361.832V437.472Z" fill="#EBEBEB"/>
<path d="M402.274 434.041L418.849 437.456L432.593 380.125L416.017 376.71L402.274 434.041Z" fill="#EBEBEB"/>
<path d="M484.609 437.451H493.099V366.463H484.609V437.451Z" fill="#EBEBEB"/>
<path d="M383.703 437.451H392.193V366.463H383.703V437.451Z" fill="#EBEBEB"/>
<path d="M255.538 369.821H238.558V437.45H255.538V369.821Z" fill="#EBEBEB"/>
<path d="M276.57 378.721H259.59V437.45H276.57V378.721Z" fill="#EBEBEB"/>
<path d="M315.579 378.721H298.599V437.45H315.579V378.721Z" fill="#EBEBEB"/>
<path d="M291.241 366.462H282.751V437.45H291.241V366.462Z" fill="#EBEBEB"/>
<path d="M537.293 450.233H238.558V530.939H537.293V450.233Z" fill="#E0E0E0"/>
<path d="M427.013 463.29H410.033V530.919H427.013V463.29Z" fill="#EBEBEB"/>
<path d="M520.172 461.585L503.439 464.26L515.83 530.906L532.563 528.232L520.172 461.585Z" fill="#EBEBEB"/>
<path d="M365.976 472.209H348.996V530.939H365.976V472.209Z" fill="#EBEBEB"/>
<path d="M404.985 472.209H388.005V530.939H404.985V472.209Z" fill="#EBEBEB"/>
<path d="M503.445 472.209H486.465V530.939H503.445V472.209Z" fill="#EBEBEB"/>
<path d="M449.323 470.174L432.748 473.589L446.491 530.92L463.067 527.505L449.323 470.174Z" fill="#EBEBEB"/>
<path d="M380.646 459.931H372.156V530.919H380.646V459.931Z" fill="#EBEBEB"/>
<path d="M481.575 459.931H473.085V530.919H481.575V459.931Z" fill="#EBEBEB"/>
<path d="M324.932 461.601L308.199 464.275L320.59 530.922L337.323 528.248L324.932 461.601Z" fill="#EBEBEB"/>
<path d="M308.199 472.209H291.219V530.939H308.199V472.209Z" fill="#EBEBEB"/>
<path d="M254.085 470.174L237.51 473.589L251.253 530.92L267.828 527.505L254.085 470.174Z" fill="#EBEBEB"/>
<path d="M286.351 459.931H277.861V530.919H286.351V459.931Z" fill="#EBEBEB"/>
<path d="M171.747 687.607H227.215L227.215 249.527H171.747L171.747 687.607Z" fill="#E0E0E0"/>
<path d="M736.796 676.169H689.682L714.45 489.065C715.044 485.156 717.116 481.569 720.296 478.943C723.476 476.318 727.558 474.824 731.815 474.729H937.296L907.162 676.085L736.796 676.169Z" fill="#F5F5F5"/>
<path d="M886.22 676.169H933.334L958.125 489.065C958.427 487.266 958.3 485.428 957.751 483.68C957.203 481.932 956.247 480.317 954.951 478.95C953.656 477.582 952.051 476.495 950.252 475.766C948.454 475.036 946.504 474.682 944.541 474.729H928.353C924.104 474.849 920.037 476.351 916.862 478.972C913.687 481.593 911.608 485.166 910.988 489.065L886.22 676.169Z" fill="#F0F0F0"/>
<path d="M868.878 675.874L877.413 585.408C877.593 583.445 878.494 581.599 879.965 580.178C881.436 578.757 883.388 577.847 885.496 577.6L889.005 577.18C891.837 576.851 894.462 575.628 896.437 573.717C898.412 571.806 899.617 569.323 899.849 566.685L901.411 550.187C901.565 548.587 901.359 546.976 900.804 545.454C900.249 543.933 899.359 542.536 898.19 541.351C897.02 540.166 895.598 539.22 894.013 538.573C892.427 537.926 890.714 537.592 888.982 537.593H967.724C969.456 537.592 971.169 537.926 972.755 538.573C974.34 539.22 975.762 540.166 976.932 541.351C978.101 542.536 978.991 543.933 979.546 545.454C980.1 546.976 980.307 548.587 980.153 550.187L978.591 566.685C978.359 569.323 977.153 571.806 975.179 573.717C973.204 575.628 970.579 576.851 967.747 577.18L964.237 577.6C962.132 577.851 960.182 578.762 958.711 580.182C957.241 581.603 956.339 583.447 956.155 585.408L947.62 675.874C947.314 679.053 945.737 682.012 943.198 684.168C940.66 686.323 937.343 687.52 933.9 687.524H855.158C858.601 687.52 861.918 686.323 864.457 684.168C866.995 682.012 868.573 679.053 868.878 675.874Z" fill="#E6E6E6"/>
<path d="M652.168 562.844C651.544 555.977 648.161 549.577 642.689 544.913C637.217 540.248 630.056 537.658 622.622 537.656H691.176C698.59 537.684 705.724 540.286 711.171 544.948C716.619 549.61 719.986 555.995 720.608 562.844L727.4 634.546H658.937L652.168 562.844Z" fill="#E6E6E6"/>
<path d="M592.172 537.74H622.6C630.033 537.742 637.195 540.332 642.667 544.996C648.138 549.661 651.521 556.061 652.145 562.928L658.937 634.629H822.217L829.009 562.928C829.626 556.077 832.992 549.689 838.44 545.026C843.889 540.363 851.026 537.763 858.441 537.74H888.892C890.624 537.739 892.337 538.073 893.922 538.72C895.507 539.367 896.93 540.313 898.099 541.498C899.268 542.683 900.159 544.08 900.714 545.602C901.268 547.123 901.475 548.734 901.321 550.334L899.759 566.832C899.526 569.47 898.321 571.953 896.346 573.864C894.371 575.776 891.747 576.998 888.914 577.327L885.405 577.747C883.298 577.994 881.345 578.904 879.874 580.326C878.403 581.747 877.503 583.592 877.323 585.555L868.878 675.874C868.573 679.054 866.996 682.012 864.457 684.168C861.918 686.324 858.601 687.521 855.158 687.524H625.996C622.553 687.521 619.236 686.324 616.697 684.168C614.159 682.012 612.581 679.054 612.276 675.874L603.741 585.408C603.553 583.448 602.649 581.606 601.18 580.187C599.71 578.767 597.763 577.855 595.658 577.6L592.149 577.18C589.316 576.848 586.691 575.625 584.713 573.715C582.735 571.805 581.524 569.323 581.282 566.685L579.743 550.187C579.612 548.599 579.836 547.004 580.401 545.5C580.966 543.996 581.86 542.617 583.027 541.448C584.194 540.28 585.608 539.347 587.182 538.709C588.756 538.071 590.454 537.741 592.172 537.74Z" fill="#F0F0F0"/>
<path d="M231.29 227.698C231.29 227.698 228.777 212.355 240.844 202.511C252.911 192.666 251.847 186.831 248.383 186.076C244.92 185.32 241.773 195.143 236.475 197.851C236.475 197.851 236.294 183.83 241.682 178.687C247.07 173.545 249.9 160.216 244.761 159.985C239.622 159.754 239.124 167.877 237.969 173.65C236.814 179.422 231.177 187.524 231.177 187.524C231.177 187.524 230.068 174.93 226.649 169.829C223.23 164.729 232.445 152.87 228.913 147.727C225.381 142.584 218.974 152.387 219.495 163.448C220.016 174.51 227.985 186.306 226.128 197.851C226.128 197.851 222.619 189.728 219.472 188.993C216.325 188.258 213.133 182.906 211.027 180.912C208.922 178.918 206.25 185.803 211.027 192.184C215.805 198.565 227.985 215.671 226.128 229.483L231.29 227.698Z" fill="#E6E6E6"/>
<path d="M238.489 220.709L242.451 243.693C242.736 245.361 242.627 247.068 242.132 248.694C241.638 250.32 240.768 251.827 239.585 253.112C238.402 254.396 236.932 255.428 235.277 256.135C233.622 256.843 231.822 257.21 229.999 257.21H225.788C223.966 257.21 222.166 256.843 220.511 256.135C218.856 255.428 217.386 254.396 216.203 253.112C215.019 251.827 214.15 250.32 213.655 248.694C213.161 247.068 213.052 245.361 213.336 243.693L217.344 220.709H238.489Z" fill="#E6E6E6"/>
<path d="M475.553 252.719H487.846V203.707H475.553V252.719Z" fill="#EBEBEB"/>
<path d="M416.101 252.719H428.394V203.707H416.101V252.719Z" fill="#EBEBEB"/>
<path d="M339.632 250.77L351.747 252.706L360.727 204.407L348.612 202.471L339.632 250.77Z" fill="#EBEBEB"/>
<path d="M460.316 252.698H472.61V210.151H460.316V252.698Z" fill="#EBEBEB"/>
<path d="M432.062 252.698H444.355V210.151H432.062V252.698Z" fill="#EBEBEB"/>
<path d="M360.7 252.698H372.994V210.151H360.7V252.698Z" fill="#EBEBEB"/>
<path d="M390.02 250.229L402.021 252.702L411.977 211.169L399.976 208.696L390.02 250.229Z" fill="#EBEBEB"/>
<path d="M449.676 252.719H455.834V201.273H449.676V252.719Z" fill="#EBEBEB"/>
<path d="M376.526 252.719H382.684V201.273H376.526V252.719Z" fill="#EBEBEB"/>
<path d="M332.695 213.803H272.767V252.152H332.695V213.803Z" fill="#EBEBEB"/>
<path d="M538.221 229.503H488.028V258.133H538.221V229.503Z" fill="#EBEBEB"/>
<path d="M526.493 204.336H501.385V232.966H526.493V204.336Z" fill="#EBEBEB"/>
<path d="M945.922 166.45H886.22V397.087H945.922V166.45Z" fill="#E0E0E0"/>
<path d="M716.239 397.716H939.515V166.471L716.239 166.471V397.716Z" fill="#E0E0E0"/>
<path d="M709.039 397.716H940.692V166.471L709.039 166.471V397.716Z" fill="#F0F0F0"/>
<path d="M718.956 387.075H931.183V173.817L718.956 173.817V387.075Z" fill="white"/>
<path d="M718.933 387.075H722.872V173.817H718.933V387.075Z" fill="#E0E0E0"/>
<path d="M722.238 327.19V332.941H931.749V327.19H722.238Z" fill="#E0E0E0"/>
<path d="M718.933 327.169H934.489V317.514H718.933V327.169Z" fill="#F0F0F0"/>
<path d="M558 814C800.435 814 996.967 803.362 996.967 790.24C996.967 777.117 800.435 766.479 558 766.479C315.565 766.479 119.033 777.117 119.033 790.24C119.033 803.362 315.565 814 558 814Z" fill="#F5F5F5"/>
<path d="M149.373 715.564H147.222C147.222 712.605 149.871 643.254 162.889 631.605C176.27 619.536 192.004 631.437 192.14 631.605L190.782 633.116C190.193 632.675 176.36 622.264 164.361 633.116C151.977 644.052 149.396 714.851 149.373 715.564Z" fill="#F1C27A"/>
<path d="M148.287 729.481L146.158 729.292C146.158 728.452 154.58 645.08 122.001 610.405L123.609 609.104C156.799 644.43 148.377 728.641 148.287 729.481Z" fill="#F1C27A"/>
<path d="M149.328 720.582C149.057 716.636 142.785 624.028 167.825 602.618L169.274 604.088C144.981 624.784 151.388 719.532 151.456 720.435L149.328 720.582Z" fill="#F1C27A"/>
<path d="M146.159 720.518C146.159 719.889 145.389 657.549 127.571 648.166C126.056 647.24 124.324 646.665 122.519 646.49C120.715 646.314 118.891 646.544 117.202 647.159C106.765 651.168 101.218 669.639 101.15 669.828L99.09 669.303C99.3164 668.505 104.976 649.719 116.387 645.332C118.375 644.592 120.526 644.307 122.658 644.5C124.79 644.694 126.84 645.361 128.635 646.445C147.494 656.457 148.287 717.81 148.309 720.497L146.159 720.518Z" fill="#F1C27A"/>
<path d="M153.494 720.56C153.358 718.461 150.619 671.36 165.04 653.875C168.889 649.236 173.145 647.032 177.764 647.347C188.02 647.998 195.876 660.886 196.306 661.431L194.45 662.418C194.45 662.292 186.707 649.824 177.605 649.32C173.779 649.047 170.112 650.999 166.738 655.092C152.792 671.884 155.599 719.972 155.622 720.455L153.494 720.56Z" fill="#F1C27A"/>
<path d="M150.619 727.088L148.49 726.941C148.49 725.807 157.546 613.344 142.604 594.579L144.325 593.403C159.765 612.756 151.004 722.428 150.619 727.088Z" fill="#F1C27A"/>
<path d="M112.244 656.52C112.244 656.52 121.481 659.69 118.742 667.141C116.002 674.592 86.7513 686.871 86.7513 686.871C86.7513 686.871 74.503 676.481 85.7551 659.585C97.0072 642.688 111.995 651.189 112.244 656.52Z" fill="#F1C27A"/>
<path opacity="0.2" d="M112.244 656.52C112.244 656.52 121.481 659.69 118.742 667.141C116.002 674.592 86.7513 686.871 86.7513 686.871C86.7513 686.871 74.503 676.481 85.7551 659.585C97.0072 642.688 111.995 651.189 112.244 656.52Z" fill="black"/>
<path d="M152.43 642.331C152.43 642.331 142.582 641.953 142.016 649.803C141.45 657.654 163.297 679.441 163.297 679.441C163.297 679.441 178.919 674.194 175.568 654.568C172.217 634.943 154.875 637.482 152.43 642.331Z" fill="#F1C27A"/>
<path opacity="0.2" d="M152.43 642.331C152.43 642.331 142.582 641.953 142.016 649.803C141.45 657.654 163.297 679.441 163.297 679.441C163.297 679.441 178.919 674.194 175.568 654.568C172.217 634.943 154.875 637.482 152.43 642.331Z" fill="black"/>
<path d="M160.762 604.675C160.762 604.675 154.196 604.024 154.717 600.33C155.237 596.636 180.232 587.085 194.971 602.429C194.971 602.429 185.53 617.458 171.9 617.668C158.271 617.878 160.762 604.675 160.762 604.675Z" fill="#F1C27A"/>
<path opacity="0.2" d="M160.762 604.675C160.762 604.675 154.196 604.024 154.717 600.33C155.237 596.636 180.232 587.085 194.971 602.429C194.971 602.429 185.53 617.458 171.9 617.668C158.271 617.878 160.762 604.675 160.762 604.675Z" fill="black"/>
<path d="M148.536 595.67C148.536 595.67 154.468 598.336 156.143 594.936C157.818 591.535 142.038 571.196 120.734 577.052C120.734 577.052 120.168 594.432 131.624 601.296C143.08 608.159 148.536 595.67 148.536 595.67Z" fill="#F1C27A"/>
<path opacity="0.2" d="M148.536 595.67C148.536 595.67 154.468 598.336 156.143 594.936C157.818 591.535 142.038 571.196 120.734 577.052C120.734 577.052 120.168 594.432 131.624 601.296C143.08 608.159 148.536 595.67 148.536 595.67Z" fill="black"/>
<path d="M179.598 653.54C179.598 653.54 175.07 650.14 179.96 648.481C184.85 646.823 208.826 647.306 209.075 669.324C209.075 669.324 181.137 673.627 177.696 665.231C174.255 656.835 179.598 653.54 179.598 653.54Z" fill="#F1C27A"/>
<path opacity="0.2" d="M179.598 653.54C179.598 653.54 175.07 650.14 179.96 648.481C184.85 646.823 208.826 647.306 209.075 669.324C209.075 669.324 181.137 673.627 177.696 665.231C174.255 656.835 179.598 653.54 179.598 653.54Z" fill="black"/>
<path d="M122.545 604.13C122.545 604.13 127.073 600.729 122.183 599.092C117.293 597.455 93.3169 597.895 93.0679 619.914C93.0679 619.914 121.006 624.238 124.447 615.842C127.888 607.446 122.545 604.13 122.545 604.13Z" fill="#F1C27A"/>
<path opacity="0.2" d="M122.545 604.13C122.545 604.13 127.073 600.729 122.183 599.092C117.293 597.455 93.3169 597.895 93.0679 619.914C93.0679 619.914 121.006 624.238 124.447 615.842C127.888 607.446 122.545 604.13 122.545 604.13Z" fill="black"/>
<path d="M137.397 621.866C137.397 621.866 137.805 617.668 134.205 619.368C130.605 621.068 118.13 633.494 131.08 645.353C131.08 645.353 148.536 633.368 145.389 627.134C142.242 620.9 137.397 621.866 137.397 621.866Z" fill="#F1C27A"/>
<path opacity="0.2" d="M137.397 621.866C137.397 621.866 137.805 617.668 134.205 619.368C130.605 621.068 118.13 633.494 131.08 645.353C131.08 645.353 148.536 633.368 145.389 627.134C142.242 620.9 137.397 621.866 137.397 621.866Z" fill="black"/>
<path d="M183.673 627.743C183.673 627.743 180.956 624.448 184.941 624.049C188.925 623.65 206.675 628.037 202.532 644.493C202.532 644.493 180.888 642.982 179.892 636.097C178.896 629.213 183.673 627.743 183.673 627.743Z" fill="#F1C27A"/>
<path opacity="0.2" d="M183.673 627.743C183.673 627.743 180.956 624.448 184.941 624.049C188.925 623.65 206.675 628.037 202.532 644.493C202.532 644.493 180.888 642.982 179.892 636.097C178.896 629.213 183.673 627.743 183.673 627.743Z" fill="black"/>
<path d="M113.851 781.557H183.831L193.136 718.461H104.546L113.851 781.557Z" fill="#263238"/>
<path opacity="0.2" d="M113.851 781.557H183.831L193.136 718.461H104.546L113.851 781.557Z" fill="white"/>
<path d="M201.921 713.34V719.343C201.921 721.269 201.096 723.117 199.627 724.479C198.158 725.841 196.165 726.606 194.088 726.606H102.735C100.658 726.606 98.6653 725.841 97.1962 724.479C95.7272 723.117 94.9019 721.269 94.9019 719.343V713.34H201.921Z" fill="#263238"/>
<path d="M1139.06 112H1074.01C1068.71 112 1063.62 113.955 1059.86 117.435C1056.11 120.915 1054 125.634 1054 130.556V183.03C1054 185.469 1054.51 187.884 1055.52 190.137C1056.52 192.391 1058 194.439 1059.85 196.164C1061.71 197.889 1063.92 199.258 1066.35 200.192C1068.78 201.126 1071.38 201.606 1074.01 201.606H1093.01L1088.48 218.167L1106.59 201.606H1139.17C1144.49 201.606 1149.58 199.649 1153.34 196.165C1157.1 192.682 1159.21 187.957 1159.21 183.03V130.556C1159.21 128.108 1158.69 125.685 1157.67 123.426C1156.66 121.166 1155.17 119.115 1153.3 117.39C1151.43 115.666 1149.2 114.302 1146.76 113.377C1144.32 112.452 1141.7 111.984 1139.06 112Z" fill="#F1C27A"/>
<path opacity="0.7" d="M1139.06 112H1074.01C1068.71 112 1063.62 113.955 1059.86 117.435C1056.11 120.915 1054 125.634 1054 130.556V183.03C1054 185.469 1054.51 187.884 1055.52 190.137C1056.52 192.391 1058 194.439 1059.85 196.164C1061.71 197.889 1063.92 199.258 1066.35 200.192C1068.78 201.126 1071.38 201.606 1074.01 201.606H1093.01L1088.48 218.167L1106.59 201.606H1139.17C1144.49 201.606 1149.58 199.649 1153.34 196.165C1157.1 192.682 1159.21 187.957 1159.21 183.03V130.556C1159.21 128.108 1158.69 125.685 1157.67 123.426C1156.66 121.166 1155.17 119.115 1153.3 117.39C1151.43 115.666 1149.2 114.302 1146.76 113.377C1144.32 112.452 1141.7 111.984 1139.06 112Z" fill="white"/>
<path d="M1106.55 179.987C1120.49 179.987 1131.79 169.509 1131.79 156.583C1131.79 143.658 1120.49 133.179 1106.55 133.179C1092.61 133.179 1081.3 143.658 1081.3 156.583C1081.3 169.509 1092.61 179.987 1106.55 179.987Z" fill="white"/>
<path d="M1106.55 126.651C1100.16 126.651 1093.92 128.406 1088.61 131.695C1083.3 134.984 1079.16 139.659 1076.72 145.128C1074.28 150.597 1073.64 156.616 1074.88 162.422C1076.13 168.228 1079.2 173.561 1083.72 177.747C1088.23 181.933 1093.99 184.784 1100.25 185.939C1106.51 187.094 1113 186.501 1118.9 184.236C1124.8 181.97 1129.84 178.134 1133.39 173.212C1136.94 168.289 1138.83 162.502 1138.83 156.582C1138.84 152.651 1138 148.758 1136.38 145.125C1134.76 141.492 1132.38 138.191 1129.38 135.411C1126.38 132.632 1122.82 130.427 1118.91 128.924C1114.99 127.42 1110.79 126.648 1106.55 126.651ZM1124.86 147.641L1105.42 168.883C1105.14 169.189 1104.79 169.435 1104.4 169.602C1104.01 169.77 1103.58 169.853 1103.15 169.848C1102.72 169.85 1102.3 169.765 1101.9 169.598C1101.51 169.432 1101.17 169.187 1100.89 168.883L1088.23 155.05C1087.96 154.777 1087.76 154.456 1087.63 154.107C1087.5 153.759 1087.44 153.389 1087.47 153.021C1087.5 152.653 1087.6 152.293 1087.78 151.964C1087.96 151.634 1088.21 151.342 1088.51 151.103C1088.82 150.865 1089.17 150.686 1089.55 150.577C1089.93 150.468 1090.33 150.431 1090.73 150.468C1091.12 150.505 1091.51 150.616 1091.86 150.794C1092.21 150.972 1092.51 151.213 1092.76 151.503L1103.15 162.858L1120.34 144.093C1120.85 143.565 1121.57 143.244 1122.34 143.197C1123.1 143.149 1123.86 143.38 1124.45 143.84C1125.03 144.3 1125.41 144.953 1125.48 145.662C1125.56 146.371 1125.34 147.081 1124.86 147.641Z" fill="#F1C27A"/>
<path d="M1093.2 440.418C1093.2 440.418 1053.78 435.8 994.059 450.913C994.059 450.913 984.46 351.966 985.592 338.365C986.724 324.763 1077.8 328.751 1077.8 328.751C1077.8 328.751 1080.07 368.359 1086 392.246C1091.93 416.132 1096.28 435.821 1093.2 440.418Z" fill="#F1C27A"/>
<path opacity="0.2" d="M1093.2 440.418C1093.2 440.418 1053.78 435.8 994.059 450.913C994.059 450.913 984.46 351.966 985.592 338.365C986.724 324.763 1077.8 328.751 1077.8 328.751C1077.8 328.751 1080.07 368.359 1086 392.246C1091.93 416.132 1096.28 435.821 1093.2 440.418Z" fill="black"/>
<path d="M965.261 767.986L981.336 772.205L985.162 749.011L987.222 736.606L971.148 732.387L968.408 749.011L965.261 767.986Z" fill="#E9BB9A"/>
<path d="M1057.68 769.203L1074.25 771.239L1074.41 749.011L1074.52 735.2L1057.93 733.185L1057.81 749.011L1057.68 769.203Z" fill="#E9BB9A"/>
<path opacity="0.2" d="M1057.93 733.185L1057.81 749.011H1074.41L1074.52 735.2L1057.93 733.185Z" fill="black"/>
<path opacity="0.2" d="M968.408 749.011H985.162L987.222 736.606L971.148 732.387L968.408 749.011Z" fill="black"/>
<path d="M893.9 346.488L877.939 342.122L880.859 359.019C880.859 359.019 895.349 362.104 896.707 355.115L893.9 346.488Z" fill="#E9BB9A"/>
<path d="M862 346.047L869.834 359.775L880.859 359.019L877.939 342.122L862 346.047Z" fill="#E9BB9A"/>
<path d="M915.929 350.811L889.712 345.375L887.334 357.171L911.129 362.544L915.929 350.811Z" fill="#E9BB9A"/>
<path d="M995.237 340.149L993.697 341.849C990.392 345.438 982.377 354.107 974.023 361.579C967.231 367.666 960.439 372.977 955.911 374.047C943.074 377.112 896.413 364.371 896.413 364.371L901.235 346.823C901.235 346.823 944.704 352.176 948.078 352.176C950.636 352.176 977.079 316.661 983.486 313.743L995.237 340.149Z" fill="#F1C27A"/>
<path opacity="0.2" d="M993.697 341.849C990.391 345.438 982.377 354.107 974.023 361.579C975.698 349.279 980.566 337.987 986.973 330.85C987.57 330.161 988.254 329.541 989.01 329.003L993.697 341.849Z" fill="black"/>
<path d="M965.465 765.656L983.713 765.215C984.042 765.205 984.364 765.3 984.628 765.483C984.891 765.666 985.079 765.927 985.162 766.223L989.01 779.845C989.102 780.171 989.114 780.512 989.044 780.843C988.975 781.174 988.826 781.486 988.608 781.756C988.391 782.026 988.11 782.248 987.788 782.404C987.466 782.56 987.11 782.647 986.746 782.658C980.158 782.658 970.627 782.658 962.363 782.805C952.673 783.056 946.515 782.616 935.195 782.805C928.403 782.972 926.139 776.634 929.037 775.983C942.01 773.002 950.5 773.59 961.548 766.873C962.714 766.153 964.066 765.732 965.465 765.656Z" fill="#263238"/>
<path d="M963.88 767.838C961.209 768.384 956.454 769.119 954.552 767.671C954.275 767.458 954.057 767.187 953.915 766.88C953.773 766.574 953.712 766.24 953.737 765.907C953.737 765.708 953.793 765.511 953.9 765.338C954.007 765.165 954.162 765.021 954.349 764.921C956.364 763.808 963.178 766.81 963.971 767.146C964.04 767.18 964.098 767.232 964.138 767.295C964.178 767.358 964.198 767.43 964.197 767.503C964.193 767.584 964.16 767.661 964.102 767.722C964.045 767.783 963.966 767.824 963.88 767.838ZM954.824 765.509H954.688C954.613 765.549 954.55 765.607 954.506 765.677C954.463 765.747 954.44 765.826 954.439 765.907C954.42 766.124 954.458 766.342 954.548 766.543C954.639 766.744 954.78 766.922 954.96 767.062C956.024 767.88 958.786 767.964 962.454 767.293C959.805 766.264 956.115 765.068 954.869 765.509H954.824Z" fill="#F1C27A"/>
<path d="M963.88 767.838H963.608C961.548 767.041 957.428 763.808 957.654 762.066C957.654 761.646 958.016 761.122 959.103 760.996C959.502 760.947 959.907 760.972 960.296 761.07C960.684 761.167 961.048 761.334 961.367 761.562C963.631 763.137 964.152 767.272 964.197 767.439C964.204 767.503 964.192 767.568 964.165 767.626C964.137 767.685 964.093 767.736 964.039 767.775L963.88 767.838ZM958.809 761.814C958.469 761.919 958.446 762.087 958.446 762.15C958.311 763.2 961.118 765.76 963.223 766.852C962.981 765.088 962.14 763.442 960.824 762.15C960.6 761.976 960.339 761.848 960.058 761.776C959.777 761.703 959.482 761.688 959.194 761.73C959.062 761.741 958.932 761.769 958.809 761.814Z" fill="#F1C27A"/>
<path d="M1058.33 765.655L1076.58 765.214C1076.91 765.204 1077.24 765.298 1077.51 765.48C1077.77 765.663 1077.97 765.925 1078.05 766.222L1081.88 779.844C1081.98 780.171 1081.99 780.513 1081.92 780.846C1081.86 781.178 1081.71 781.492 1081.49 781.763C1081.27 782.035 1080.99 782.256 1080.66 782.411C1080.34 782.566 1079.98 782.65 1079.62 782.657C1073.03 782.657 1063.5 782.657 1055.21 782.804C1045.54 783.056 1039.36 782.615 1028.04 782.804C1021.25 782.972 1018.99 776.633 1021.88 775.982C1034.86 773.002 1043.32 773.589 1054.37 766.873C1055.55 766.145 1056.92 765.724 1058.33 765.655Z" fill="#263238"/>
<path d="M1056.77 767.838C1054.1 768.384 1049.32 769.119 1047.44 767.671C1047.17 767.458 1046.95 767.187 1046.81 766.88C1046.67 766.574 1046.6 766.24 1046.63 765.907C1046.63 765.708 1046.68 765.511 1046.79 765.338C1046.9 765.165 1047.05 765.021 1047.24 764.921C1049.23 763.808 1056.07 766.81 1056.84 767.146C1056.92 767.173 1056.98 767.223 1057.02 767.288C1057.06 767.353 1057.08 767.428 1057.07 767.503C1057.06 767.58 1057.03 767.653 1056.98 767.713C1056.92 767.773 1056.85 767.817 1056.77 767.838ZM1047.72 765.509H1047.58C1047.51 765.548 1047.44 765.607 1047.4 765.677C1047.36 765.748 1047.35 765.828 1047.35 765.907C1047.33 766.125 1047.37 766.344 1047.46 766.545C1047.55 766.747 1047.69 766.924 1047.87 767.062C1048.94 767.88 1051.68 767.964 1055.37 767.293C1052.67 766.264 1048.98 765.068 1047.74 765.509H1047.72Z" fill="#F1C27A"/>
<path d="M1056.77 767.839H1056.48C1054.44 767.041 1050.3 763.809 1050.55 762.067C1050.55 761.647 1050.89 761.122 1051.97 760.996C1052.37 760.946 1052.78 760.97 1053.17 761.067C1053.56 761.164 1053.92 761.333 1054.24 761.563C1055.82 763.199 1056.81 765.255 1057.07 767.44C1057.08 767.504 1057.07 767.57 1057.04 767.63C1057.01 767.69 1056.97 767.74 1056.91 767.776L1056.77 767.839ZM1051.68 761.815C1051.36 761.92 1051.34 762.088 1051.34 762.151C1051.18 763.2 1054.01 765.761 1056.12 766.852C1055.86 765.094 1055.02 763.452 1053.72 762.151C1053.49 761.978 1053.23 761.851 1052.95 761.779C1052.67 761.706 1052.37 761.69 1052.09 761.731L1051.68 761.815Z" fill="#F1C27A"/>
<path d="M1091.86 431.392C1100.65 466.676 1085.57 744.267 1085.57 744.267H1056.45L1044 512.937L998.157 744.267L967.027 742.168C987.403 562.956 1005.36 455.971 1005.36 455.971V442.453L1091.86 431.392Z" fill="#263238"/>
<path opacity="0.4" d="M967.027 742.168L998.157 744.267L1034.25 562.159L1044 512.937L1056.45 744.267H1085.57C1085.57 744.267 1100.65 466.676 1091.86 431.392L1005.31 442.453V455.971C1005.31 455.971 987.38 562.956 967.027 742.168Z" fill="white"/>
<path d="M1076.17 300.709C1075.28 317.579 1075.74 334.488 1077.56 351.294C1078.78 363.049 1080.45 374.152 1082.24 384.165C1086.43 407.652 1091.18 425.263 1091.86 431.413L1005.31 442.474C973.751 360.614 985.637 313.051 985.637 313.051C992.109 310.573 998.74 308.47 1005.49 306.754C1006.92 306.397 1008.37 306.061 1009.86 305.746C1022.02 303.529 1034.3 301.959 1046.65 301.045C1048.92 300.856 1051.38 300.709 1053.69 300.604C1065.51 300.058 1076.17 300.709 1076.17 300.709Z" fill="#263238"/>
<path d="M1029.85 263.871C1030.49 275.101 1031.78 296.175 1041.85 301.527C1041.85 301.527 1035.58 312.589 1022.02 313.722C1011.76 314.562 1012.44 305.179 1012.44 305.179C1018.37 301.086 1016.97 294.139 1012.44 286.289L1029.85 263.871Z" fill="#E9BB9A"/>
<path opacity="0.2" d="M1022.74 273.023L1012.51 286.289C1013.59 288.103 1014.5 289.999 1015.23 291.956C1019.98 290.193 1025.44 283.56 1024.65 278.754C1024.4 276.751 1023.75 274.809 1022.74 273.023Z" fill="black"/>
<path d="M985.705 241.265C983.735 247.1 984.822 259.065 993.584 255.182C1002.35 251.298 989.101 231.253 985.705 241.265Z" fill="#263238"/>
<path d="M1030.99 249.158C1031.96 264.124 1033.25 272.834 1026.21 281.314C1015.5 294.055 994.761 289.312 988.965 274.871C983.758 261.857 983.056 239.566 998.021 232.009C1001.34 230.336 1005.06 229.47 1008.84 229.493C1012.61 229.516 1016.32 230.427 1019.61 232.14C1022.91 233.853 1025.68 236.313 1027.67 239.289C1029.66 242.266 1030.8 245.661 1030.99 249.158Z" fill="#E9BB9A"/>
<path d="M1019.67 241.013V224.221C1019.67 224.221 1038.86 222.899 1038 232.009C1048.64 236.899 1043.62 252.243 1029.33 259.757C1021.5 253.943 1022.4 239.964 1022.4 239.964C1021.57 240.362 1020.62 240.698 1019.67 241.013Z" fill="#263238"/>
<path d="M1038.8 260.828C1038.43 262.659 1037.66 264.403 1036.56 265.956C1035.45 267.51 1034.02 268.842 1032.34 269.875C1027.82 272.625 1023.9 269.245 1023.74 264.522C1023.6 260.324 1025.76 253.692 1030.96 252.852C1032.1 252.687 1033.27 252.787 1034.35 253.142C1035.44 253.498 1036.42 254.097 1037.19 254.887C1037.97 255.678 1038.52 256.634 1038.8 257.671C1039.08 258.707 1039.08 259.792 1038.8 260.828Z" fill="#E9BB9A"/>
<path d="M1007.15 255.833C1007.3 257.05 1006.74 258.099 1005.88 258.183C1005.02 258.267 1004.2 257.365 1004.04 256.084C1003.88 254.804 1004.45 253.818 1005.29 253.734C1006.13 253.65 1006.99 254.531 1007.15 255.833Z" fill="#263238"/>
<path d="M992.339 257.364C992.497 258.582 991.931 259.631 991.071 259.715C990.21 259.799 989.395 258.897 989.237 257.616C989.078 256.336 989.644 255.349 990.505 255.265C991.365 255.181 992.135 256.147 992.339 257.364Z" fill="#263238"/>
<path d="M997.116 257.47C995.972 261.223 994.272 264.811 992.067 268.133C993.043 268.598 994.115 268.866 995.211 268.921C996.308 268.975 997.404 268.814 998.429 268.447L997.116 257.47Z" fill="#DE5753"/>
<path d="M1006.06 272.352C1005.5 272.484 1004.93 272.582 1004.36 272.645C1004.26 272.645 1004.16 272.608 1004.09 272.541C1004.02 272.474 1003.98 272.383 1003.98 272.289C1003.98 272.194 1004.02 272.103 1004.09 272.036C1004.16 271.969 1004.26 271.932 1004.36 271.932C1005.99 271.795 1007.55 271.306 1008.94 270.504C1010.32 269.702 1011.48 268.609 1012.33 267.314C1012.35 267.272 1012.38 267.233 1012.41 267.202C1012.45 267.17 1012.49 267.145 1012.54 267.13C1012.59 267.114 1012.64 267.107 1012.69 267.11C1012.74 267.113 1012.78 267.125 1012.83 267.146C1012.87 267.166 1012.92 267.195 1012.95 267.23C1012.98 267.266 1013.01 267.307 1013.03 267.352C1013.05 267.397 1013.05 267.445 1013.05 267.492C1013.05 267.54 1013.03 267.586 1013.01 267.629C1012.27 268.821 1011.27 269.857 1010.07 270.67C1008.87 271.483 1007.51 272.056 1006.06 272.352Z" fill="#263238"/>
<path d="M1011.13 250.941C1010.99 250.971 1010.85 250.967 1010.72 250.93C1010.58 250.894 1010.46 250.825 1010.36 250.732C1009.7 250.065 1008.89 249.55 1007.98 249.226C1007.08 248.901 1006.1 248.777 1005.13 248.863C1005.03 248.885 1004.93 248.887 1004.83 248.869C1004.73 248.852 1004.63 248.816 1004.54 248.763C1004.46 248.709 1004.39 248.641 1004.33 248.56C1004.28 248.48 1004.24 248.391 1004.22 248.297C1004.2 248.204 1004.21 248.109 1004.23 248.017C1004.25 247.925 1004.28 247.837 1004.34 247.759C1004.4 247.681 1004.47 247.614 1004.56 247.562C1004.64 247.51 1004.74 247.475 1004.84 247.457C1006.06 247.322 1007.3 247.459 1008.45 247.857C1009.6 248.255 1010.64 248.902 1011.47 249.745C1011.54 249.81 1011.6 249.888 1011.64 249.974C1011.68 250.061 1011.7 250.154 1011.7 250.249C1011.7 250.343 1011.68 250.436 1011.64 250.523C1011.6 250.61 1011.54 250.688 1011.47 250.752C1011.37 250.838 1011.26 250.902 1011.13 250.941Z" fill="#263238"/>
<path d="M985.343 253.313C985.197 253.365 985.036 253.365 984.89 253.313C984.698 253.251 984.541 253.121 984.452 252.952C984.363 252.783 984.35 252.589 984.415 252.41C984.789 251.33 985.439 250.35 986.31 249.553C987.181 248.756 988.248 248.166 989.418 247.835C989.616 247.787 989.826 247.815 990.003 247.911C990.179 248.008 990.307 248.165 990.358 248.349C990.409 248.533 990.379 248.728 990.275 248.891C990.171 249.054 990.001 249.173 989.803 249.22C988.877 249.484 988.036 249.956 987.353 250.593C986.67 251.23 986.166 252.012 985.886 252.872C985.843 252.982 985.771 253.08 985.676 253.157C985.581 253.235 985.466 253.288 985.343 253.313Z" fill="#263238"/>
<path d="M1028.18 247.226C1028.18 247.226 1016.86 243.385 1011.7 237.298C1011.7 237.298 1001.42 239.796 999.312 243.595C998.351 242.832 997.729 241.767 997.566 240.604C997.403 239.441 997.71 238.263 998.429 237.298C998.429 237.298 990.731 238.809 989.214 243.595C987.963 243.043 986.936 242.133 986.284 241C985.632 239.866 985.389 238.569 985.592 237.298C985.592 237.298 982.173 238.494 981.064 243.595C981.064 243.595 972.574 227.181 1000.62 222.479C998.502 221.811 996.278 221.464 994.036 221.451C994.036 221.451 1013.62 214.125 1029.13 220.821C1044.64 227.517 1041.94 240.489 1028.18 247.226Z" fill="#263238"/>
<path d="M1098.54 445.539L1071.37 448.897C1071.37 448.897 1060.17 376.293 1055.23 352.848V302.808L1069.43 299.344L1080.43 302.808C1083.45 312.875 1085.77 323.111 1087.38 333.453C1088.72 341.303 1089.92 349.699 1090.98 358.2C1092.45 369.787 1093.68 381.583 1094.72 392.624C1096.35 410.444 1097.43 426.207 1098.02 435.842C1098.36 441.887 1098.54 445.539 1098.54 445.539Z" fill="#F1C27A"/>
<path d="M1055.26 352.805C1055.26 352.805 1057.52 317.479 1069.45 299.26C1069.45 299.26 1069.16 294.054 1066.78 293.215C1064.4 292.375 1055.26 297.413 1055.26 297.413C1055.26 297.413 1049.57 293.802 1048.33 295.482C1047.08 297.161 1044.05 308.328 1055.26 352.805Z" fill="#F1C27A"/>
<path opacity="0.7" d="M1055.26 352.805C1055.26 352.805 1057.52 317.479 1069.45 299.26C1069.45 299.26 1069.16 294.054 1066.78 293.215C1064.4 292.375 1055.26 297.413 1055.26 297.413C1055.26 297.413 1049.57 293.802 1048.33 295.482C1047.08 297.161 1044.05 308.328 1055.26 352.805Z" fill="white"/>
<path d="M993.493 455.215L996.595 457.314C996.595 457.314 992.067 433.91 993.923 374.719C993.923 371.864 994.127 369.115 994.24 366.491C996.504 316.409 1004.93 307.299 1005.56 306.754L997.727 309.23L983.531 313.764C979.253 356.479 993.493 455.215 993.493 455.215Z" fill="#F1C27A"/>
<path d="M994.716 357.864C994.716 357.864 986.882 323.525 989.214 311.686C991.546 299.848 999.9 305.117 999.9 305.117C999.9 305.117 1007.58 299.365 1009.86 305.704C1009.86 305.704 999.312 312.589 994.716 357.864Z" fill="#F1C27A"/>
<path opacity="0.7" d="M994.716 357.864C994.716 357.864 986.882 323.525 989.214 311.686C991.546 299.848 999.9 305.117 999.9 305.117C999.9 305.117 1007.58 299.365 1009.86 305.704C1009.86 305.704 999.312 312.589 994.716 357.864Z" fill="white"/>
<path opacity="0.2" d="M1090.94 358.116C1079.34 352.092 1077.8 336.371 1077.8 336.371C1078.51 336.119 1082.81 334.754 1087.34 333.369C1088.67 341.219 1089.87 349.615 1090.94 358.116Z" fill="black"/>
<path opacity="0.2" d="M1034.25 562.159L1044 512.938L1042.12 486.889C1042.12 486.889 1028.74 532.059 1034.25 562.159Z" fill="black"/>
<path opacity="0.2" d="M1097.98 435.757C1090.69 435.295 1084.39 434.855 1084.39 434.855L1083.01 407.379C1085.28 406.061 1088.01 405.595 1090.64 406.078C1092.43 401.688 1093.79 397.157 1094.69 392.539C1096.28 410.359 1097.39 426.144 1097.98 435.757Z" fill="black"/>
<path d="M1100.47 392.518L1086.27 413.655L1097.5 419.637L1110.84 400.599L1100.47 392.518Z" fill="#E9BB9A"/>
<path d="M1079.82 302.471C1089.37 303.437 1129.99 355.114 1131.78 370.689C1133.57 386.263 1107.92 413.151 1107.92 413.151L1090.8 403.811C1090.8 403.811 1108.19 379.022 1109.09 372.326C1110 365.63 1077.28 338.574 1077.28 338.574C1074.81 332.341 1073.45 325.776 1073.25 319.137C1072.8 307.761 1079.82 302.471 1079.82 302.471Z" fill="#F1C27A"/>
<path d="M1082.99 407.401C1082.99 407.401 1097.59 410.297 1103.48 418.819C1103.48 418.819 1097.37 436.556 1093 438.487C1088.63 440.418 1077.8 440.418 1077.8 440.418C1077.8 440.418 1077.1 420.687 1082.99 407.401Z" fill="#F1C27A"/>
</svg>
