<svg width="522" height="668" viewBox="0 0 522 668" fill="none" xmlns="http://www.w3.org/2000/svg">
<path d="M257.667 642.333C209.333 642.333 166 629.417 128.917 604.417C92.2501 579.417 64.75 543.583 46.8334 497.75C36.4167 471.083 30.1667 441.917 27.2501 408.583C23.9167 369 26.4167 328.583 35.1667 289C48.9167 225.25 76.8334 170.25 117.667 124.417C158.083 79.4167 206 49 260.583 34.8334C283.917 28.5834 307.25 25.6667 329.333 25.6667C356 25.6667 382.25 30.25 407.25 39.4167C444.333 53.1667 469.75 76.9167 481.833 110.25C487.667 125.667 489.333 141.917 487.667 160.25C485.167 186.083 476.833 209 462.667 228.583C446.417 251.083 426.833 264.833 403.083 270.667C398.917 271.917 394.333 272.333 389.333 272.333C387.25 272.333 385.583 272.333 383.5 271.917C376.417 271.083 370.167 268.167 366 262.75C361.833 257.333 360.167 250.25 361 243.167C362.25 234.833 365.583 227.75 368.917 221.917L370.167 219.417C376.833 206.083 383.083 193.583 386.417 180.25C391.833 157.75 391.833 140.667 386 124.833C379.75 108.167 368.083 97.75 350.583 93.5833C343.917 91.9167 337.25 91.0834 330.583 91.0834C315.583 91.0834 299.75 94.8334 283.083 102.333C250.167 117.333 222.25 142.333 198.5 178.583C182.25 203.583 169.75 231.5 160.583 264C153.917 287.333 149.75 311.917 147.25 337.333C146 349.417 145.167 363.583 145.167 377.333C145.583 417.75 151.417 449.833 163.917 478.167C177.667 509.833 196.417 531.917 221.833 546.083C238.917 555.667 258.083 560.667 278.5 560.667C281.833 560.667 285.583 560.667 289.333 560.25C332.667 556.917 371 537.333 406 500.667C423.917 481.917 438.917 460.25 451.833 434.417C453.917 430.667 456 426.5 459.333 423.167C463.5 418.583 468.917 416.083 474.75 416.083C481.833 416.083 488.083 419.833 492.25 426.5C497.25 434.833 496.833 444 496 449.833C493.5 466.917 487.25 483.583 476.833 503.167C446.833 556.917 405.583 596.5 354.333 621.083C328.083 633.583 299.75 640.667 270.583 641.917C266 642.333 261.833 642.333 257.667 642.333Z" stroke="#F0C17B" stroke-width="50" stroke-miterlimit="10" stroke-linejoin="round"/>
</svg>
