<svg width="136" height="100" viewBox="0 0 136 100" fill="none" xmlns="http://www.w3.org/2000/svg">
<path d="M42.953 24.746C43.007 24.746 43.07 24.746 43.133 24.746C51.8 24.746 59.648 28.247 65.345 33.9125C70.1465 38.4215 74.552 43.1105 79.178 47.804C79.9745 48.5735 80.4695 49.6535 80.4695 50.8505C80.4695 51.44 80.348 52.007 80.1275 52.5155L80.1365 52.4885C79.529 54.095 78.062 55.238 76.3115 55.3685H76.298C76.1315 55.391 75.9425 55.4045 75.749 55.4045C74.561 55.4045 73.49 54.8915 72.7475 54.077L72.743 54.0725C68.333 49.6625 63.932 45.3155 59.585 40.856C56.2595 37.418 51.872 35.0285 46.9535 34.205L46.8185 34.187C45.6125 33.971 44.2265 33.845 42.8135 33.845C29.7635 33.845 19.184 44.4245 19.184 57.4745C19.184 68.639 26.9285 77.999 37.3415 80.465L37.5035 80.4965C39.4655 80.888 41.72 81.1085 44.0285 81.1085C44.6945 81.1085 45.356 81.0905 46.013 81.0545L45.923 81.059C45.9725 81.0545 46.0265 81.0545 46.085 81.0545C46.7375 81.0545 47.3225 81.338 47.723 81.788C50.441 84.4475 53.3165 87.1025 56.1425 89.7485C56.309 89.9195 56.534 90.086 56.705 90.2525C56.3675 90.2525 56.1425 90.3065 55.9175 90.3065H42.9845C27.392 90.302 14.342 79.421 11.012 64.841L10.9715 64.6205C10.4585 62.456 10.1615 59.972 10.1615 57.416C10.1615 42.9035 19.6835 30.614 32.819 26.456L33.0485 26.393C35.996 25.4255 39.389 24.827 42.9125 24.7415H42.9575L42.953 24.746ZM85.721 9.77001C85.829 9.77001 85.9595 9.77001 86.0855 9.77001C98.0555 9.77001 108.783 15.1025 116.015 23.5265L116.06 23.5805C122.171 30.6185 125.892 39.8705 125.892 49.991C125.892 51.8675 125.766 53.7125 125.519 55.5215L125.541 55.31C123.179 72.1985 110.678 85.6175 94.4735 89.3075L94.2035 89.3615C91.5665 89.9645 88.538 90.311 85.4285 90.311C83.444 90.311 81.4955 90.1715 79.5875 89.897L79.808 89.924C73.4045 89.177 67.658 86.8595 62.816 83.363L62.924 83.435C61.52 82.427 60.287 81.3695 59.1485 80.2175L59.144 80.213C52.25 73.436 45.4235 66.605 38.5295 59.828C37.616 59.027 37.0445 57.857 37.0445 56.552C37.0445 55.832 37.22 55.148 37.5305 54.5495L37.517 54.572C38.264 52.9655 39.866 51.872 41.72 51.872C41.9495 51.872 42.1745 51.89 42.395 51.9215L42.368 51.917C43.5515 52.106 44.5685 52.7 45.2975 53.5505L45.302 53.5595C51.5165 59.8235 57.6725 65.9795 63.8825 72.2525C68.4005 76.8605 74.408 79.9925 81.1265 80.8745L81.275 80.8925C82.733 81.1445 84.416 81.2885 86.1305 81.2885C95.243 81.2885 103.406 77.2295 108.909 70.8215L108.941 70.781C112.757 66.5015 115.416 61.1105 116.375 55.1525L116.397 54.977C116.703 53.3795 116.879 51.539 116.879 49.658C116.879 42.548 114.372 36.0275 110.196 30.9245L110.237 30.9785C104.49 23.612 95.6075 18.9185 85.631 18.9185C79.376 18.9185 73.5485 20.7635 68.6705 23.9405L68.792 23.8685C68.6705 23.9405 68.522 23.981 68.3645 23.981C68.252 23.981 68.1485 23.9585 68.0495 23.9225C65.759 22.208 63.1715 20.6105 60.4445 19.2515L60.1475 19.1165C60.1025 19.067 60.0665 19.013 60.035 18.95V18.9455C62.0915 17.222 64.409 15.683 66.884 14.414L67.0955 14.315C71.3885 11.939 76.442 10.3595 81.8105 9.91401L81.9455 9.90501C83.1995 9.80901 84.455 9.76401 85.712 9.77001H85.721ZM83.6465 0.248013C82.346 0.360513 80.9915 0.473015 79.6955 0.639515C73.7825 1.31451 68.396 2.97051 63.5 5.45451L63.77 5.32851C58.424 7.97901 53.8565 11.3225 49.946 15.314L49.937 15.323C49.784 15.503 49.5545 15.62 49.3025 15.62C49.2485 15.62 49.1945 15.6155 49.1405 15.602H49.145C47.291 15.314 45.149 15.152 42.9665 15.152C24.908 15.152 9.48196 26.42 3.33496 42.3095L3.23596 42.5975C1.82746 46.139 0.900461 50.234 0.643961 54.518L0.639461 54.626C0.634961 54.887 0.594461 55.139 0.522461 55.3775L0.526961 55.3595V59.7065C0.639461 60.836 0.810461 61.9115 0.918461 63.041C1.51696 67.9145 2.91196 72.338 4.97746 76.3655L4.87396 76.1405C9.37846 85.226 16.8035 92.2955 25.8935 96.2465L26.1635 96.35C30.2 98.177 34.8935 99.374 39.8255 99.68L39.938 99.6845C40.109 99.6845 40.2755 99.707 40.4375 99.743L40.424 99.7385H88.6505C89.681 99.644 90.6845 99.5405 91.7285 99.401C97.5965 98.726 102.942 97.07 107.802 94.586L107.537 94.7075C116.091 90.4685 123.053 84.1235 127.917 76.3385L128.039 76.127C131.265 71.1545 133.601 65.2955 134.658 59.0045L134.694 58.7345C134.973 56.822 135.144 54.842 135.374 52.9205C135.378 52.6595 135.419 52.4075 135.491 52.169L135.486 52.187V47.723C135.374 46.4315 135.207 45.1805 135.207 44.0015C134.532 38.129 132.876 32.783 130.392 27.923L130.514 28.1885C126.216 19.643 119.84 12.6905 112.032 7.81701L111.821 7.69551C106.88 4.50951 101.061 2.19201 94.82 1.12551L94.5455 1.08501C92.5115 0.747515 90.536 0.581014 88.502 0.356014C88.2185 0.347014 87.9485 0.306514 87.6875 0.239014L87.7145 0.243513L83.6465 0.248013Z" fill="#F0C17B"/>
</svg>
