<svg width="534" height="800" viewBox="0 0 534 800" fill="none" xmlns="http://www.w3.org/2000/svg">
<path fill-rule="evenodd" clip-rule="evenodd" d="M147.497 0C65.9458 0 0.333496 68.4257 0.333496 152.252C0.333496 203.225 24.5885 248.489 61.9052 276.126C24.5885 303.763 0.333496 349.027 0.333496 400C0.333496 450.973 24.5885 496.237 61.9052 523.873C24.5885 551.51 0.333496 596.773 0.333496 647.747C0.333496 731.573 65.9458 800 147.497 800C229.047 800 294.66 731.573 294.66 647.747V518.97C319.787 539.773 351.757 552.253 386.51 552.253C468.06 552.253 533.673 483.827 533.673 400C533.673 349.027 509.42 303.763 472.103 276.126C509.42 248.489 533.673 203.225 533.673 152.252C533.673 68.4257 468.06 0 386.51 0H147.497ZM55.6478 152.252C55.6478 99.223 97.0178 56.7567 147.497 56.7567H239.347V247.748H147.497C97.0178 247.748 55.6478 205.282 55.6478 152.252ZM386.51 247.748H294.66V56.7567H386.51C436.99 56.7567 478.36 99.223 478.36 152.252C478.36 205.282 436.99 247.748 386.51 247.748ZM55.6478 400C55.6478 346.97 97.0178 304.505 147.497 304.505H239.347V495.497H147.497C97.0178 495.497 55.6478 453.03 55.6478 400ZM294.66 400C294.66 346.97 336.03 304.505 386.51 304.505C436.99 304.505 478.36 346.97 478.36 400C478.36 453.03 436.99 495.497 386.51 495.497C336.03 495.497 294.66 453.03 294.66 400ZM55.6478 647.747C55.6478 594.72 97.0178 552.253 147.497 552.253H239.347V647.747C239.347 700.777 197.976 743.243 147.497 743.243C97.0178 743.243 55.6478 700.777 55.6478 647.747Z" fill="#F0C17B"/>
</svg>
