<svg width="800" height="800" viewBox="0 0 800 800" fill="none" xmlns="http://www.w3.org/2000/svg">
<path d="M675 400V275C675 275 675 250 650 225L475 50C450 25 425 25 425 25M425 25H50C50 25 25 25 25 50V750C25 750 25 775 50 775H450M425 25V250C425 250 425 275 450 275H575M625 575L675 625M675 625L625 675M675 625H575M775 625C775 542.175 707.825 475 625 475C542.175 475 475 542.175 475 625C475 707.825 542.175 775 625 775C707.825 775 775 707.825 775 625Z" stroke="#F0C17B" stroke-width="50" stroke-linecap="round" stroke-linejoin="round"/>
</svg>
