<svg width="677" height="736" viewBox="0 0 677 736" fill="none" xmlns="http://www.w3.org/2000/svg">
<path d="M85.8136 68.7933C87.7546 34.457 95.9566 19.5257 119.478 7.53535C144.786 -5.37002 184.702 0.63575 231.672 24.4203C251.902 34.6697 253.962 34.8783 289.417 30.3327C336.544 24.2883 397.214 24.3097 440.71 30.388C473.604 34.9847 475.764 34.755 496.044 24.4843C562.714 -9.27735 615.35 -7.06831 634.41 30.29C643.924 48.9373 645.69 97.3237 638.314 137.232C634.224 159.356 634.657 162.119 644.51 176.637C713.834 278.795 663.884 444.387 545.094 506.183C536.004 510.913 528.344 513.84 522.1 516.223C502.93 523.543 497.11 525.767 504.157 559.46C507.55 575.667 511.637 615.96 513.244 649.007C516.147 708.74 516.104 709.157 505.627 721.343C491.367 737.92 470.814 738.2 456.887 722.007C447.804 711.447 446.917 706.46 446.917 665.717C446.917 605.507 440.317 565.487 424.724 531.193C406.18 490.383 419.927 475.167 462.334 466.047C521.277 453.367 567.314 416.99 592.974 362.82C617.37 311.327 621.047 240.167 576.94 196.889C564.397 181.983 563.524 168.482 572.48 127.77C575.827 112.553 578.634 92.9227 578.717 84.1417C578.844 70.2743 577.58 68.1803 569.064 68.1803C563.674 68.1803 543.08 76.0207 523.307 85.6017L491.747 100.898C488.877 102.289 485.667 102.823 482.5 102.46C402.25 93.2487 325.997 93.1063 245.354 102.496C242.176 102.866 238.951 102.331 236.072 100.934L204.529 85.6273C184.753 76.029 164.161 68.1803 158.773 68.1803C146.314 68.1803 146.127 77.3783 157.483 132.026C164.42 165.401 169.088 172.838 149.034 199.524C118.975 239.525 111.467 289.197 127.586 341.387C147.902 407.153 197.65 451.583 267.591 466.407C309.754 475.343 320.774 487.003 304.674 535.35C292 573.397 283.987 583.203 265.569 583.203C240.789 583.203 225.266 561.737 233.808 539.273C237.571 529.373 236.452 528.317 213.237 519.85C142.373 494.013 88.1716 436.103 63.3909 359.743C44.2372 300.728 52.6649 223.913 83.3919 177.484C93.8539 161.676 94.0159 160.335 89.1336 130.072C86.3712 112.941 84.8772 85.3677 85.8136 68.7933Z" fill="#F0C17B"/>
<path d="M61.0678 500.513C50.8562 485.197 30.1605 481.057 14.8428 491.27C-0.474486 501.48 -4.61382 522.177 5.59785 537.493C13.1368 548.803 22.1558 558.093 29.8148 565.75C31.2268 567.163 32.5989 568.527 33.9385 569.857C40.3542 576.23 46.0188 581.857 51.7082 588.537C64.2918 603.307 76.8455 623.2 83.9802 658.873C87.1582 674.763 98.5799 683.323 104.909 687.063C111.772 691.117 119.271 693.507 125.442 695.063C138.066 698.247 153.39 699.9 167.933 700.863C183.899 701.923 201.198 702.267 216.667 702.36C216.678 720.757 231.597 735.67 250 735.67C268.409 735.67 283.333 720.747 283.333 702.337V669.003C283.333 650.593 268.409 635.67 250 635.67C246.857 635.67 243.458 635.68 239.857 635.693C220.295 635.753 194.796 635.83 172.34 634.343C161.511 633.627 152.609 632.61 146.081 631.367C136.028 591.903 119.788 565.647 102.458 545.303C94.7972 536.313 86.8645 528.447 80.4122 522.047C79.2042 520.85 78.0482 519.703 76.9552 518.61C69.5102 511.167 64.6402 505.873 61.0678 500.513Z" fill="#F0C17B"/>
</svg>
