<svg width="800" height="800" viewBox="0 0 800 800" fill="none" xmlns="http://www.w3.org/2000/svg">
<g clip-path="url(#clip0_163_25)">
<path d="M625 525C638.807 525 650 513.807 650 500C650 486.193 638.807 475 625 475C611.193 475 600 486.193 600 500C600 513.807 611.193 525 625 525Z" fill="#F0C17B"/>
<path d="M485.353 750H375V639.642L500.843 513.8C500.286 509.221 500.004 504.613 500 500C499.984 474.685 507.655 449.961 521.998 429.101C536.341 408.241 556.68 392.227 580.323 383.179C603.966 374.131 629.799 372.475 654.404 378.43C679.009 384.385 701.226 397.67 718.115 416.528C735.005 435.386 745.77 458.928 748.987 484.038C752.204 509.148 747.72 534.643 736.131 557.15C724.541 579.656 706.39 598.113 684.081 610.079C661.772 622.044 636.355 626.953 611.195 624.157L485.353 750ZM425 700H464.647L594.8 569.842L608.287 572.937C624.36 576.767 641.243 575.245 656.372 568.604C671.5 561.963 684.048 550.565 692.108 536.142C700.169 521.719 703.301 505.06 701.03 488.695C698.758 472.329 691.207 457.152 679.524 445.47C667.84 433.787 652.663 426.238 636.297 423.968C619.932 421.698 603.272 424.832 588.85 432.893C574.428 440.955 563.032 453.504 556.392 468.633C549.752 483.762 548.232 500.645 552.063 516.717L555.153 530.2L425 660.358V700Z" fill="#F0C17B"/>
<path d="M200 200H150V400H200V200Z" fill="#F0C17B"/>
<path d="M100 200H50V400H100V200Z" fill="#F0C17B"/>
<path d="M500 200H450V350H500V200Z" fill="#F0C17B"/>
<path d="M350 400H300C286.739 400 274.021 394.732 264.645 385.355C255.268 375.979 250 363.261 250 350V250C250 236.739 255.268 224.021 264.645 214.645C274.021 205.268 286.739 200 300 200H350C363.261 200 375.979 205.268 385.355 214.645C394.732 224.021 400 236.739 400 250V350C400 363.261 394.732 375.979 385.355 385.355C375.979 394.732 363.261 400 350 400ZM300 350H350V250H300V350Z" fill="#F0C17B"/>
<path d="M100 450H50V650H100V450Z" fill="#F0C17B"/>
<path d="M400 450H350V550H400V450Z" fill="#F0C17B"/>
<path d="M250 650H200C186.739 650 174.021 644.732 164.645 635.355C155.268 625.979 150 613.261 150 600V500C150 486.739 155.268 474.021 164.645 464.645C174.021 455.268 186.739 450 200 450H250C263.261 450 275.979 455.268 285.355 464.645C294.732 474.021 300 486.739 300 500V600C300 613.261 294.732 625.979 285.355 635.355C275.979 644.732 263.261 650 250 650ZM200 600H250V500H200V600Z" fill="#F0C17B"/>
<path d="M100 50H50V150H100V50Z" fill="#F0C17B"/>
<path d="M400 50H350V150H400V50Z" fill="#F0C17B"/>
<path d="M500 50H450V150H500V50Z" fill="#F0C17B"/>
<path d="M250 150H200C186.739 150 174.021 144.732 164.645 135.355C155.268 125.979 150 113.261 150 100V50H200V100H250V50H300V100C300 113.261 294.732 125.979 285.355 135.355C275.979 144.732 263.261 150 250 150Z" fill="#F0C17B"/>
</g>
<defs>
<clipPath id="clip0_163_25">
<rect width="800" height="800" fill="white"/>
</clipPath>
</defs>
</svg>
