<svg width="734" height="734" viewBox="0 0 734 734" fill="none" xmlns="http://www.w3.org/2000/svg">
<path d="M300.333 533.667H267V283.667L440.94 544.577C456.567 568.017 485.247 579.107 512.58 572.273L521.043 570.157C528.463 568.3 533.667 561.633 533.667 553.987V200.333C533.667 200.333 567 200.333 567 167H467C433.667 167 433.667 200.333 433.667 200.333H467V400.333L305.32 173.979C302.19 169.599 297.142 167 291.759 167H200.333C167 167 167 200.333 167 200.333H200.333V533.667C200.333 533.667 167 533.667 167 567H267C300.333 567 300.333 533.667 300.333 533.667Z" fill="#F0C17B"/>
<path fill-rule="evenodd" clip-rule="evenodd" d="M0.333496 100.333C0.333496 45.105 45.1052 0.333374 100.333 0.333374H633.667C688.897 0.333374 733.667 45.105 733.667 100.333V633.667C733.667 688.897 688.897 733.667 633.667 733.667H100.333C45.1052 733.667 0.333496 688.897 0.333496 633.667V100.333ZM100.333 67H633.667C652.077 67 667 81.924 667 100.333V633.667C667 652.077 652.077 667 633.667 667H100.333C81.9242 667 67.0002 652.077 67.0002 633.667V100.333C67.0002 81.924 81.9242 67 100.333 67Z" fill="#F0C17B"/>
</svg>
