<svg width="668" height="468" viewBox="0 0 668 468" fill="none" xmlns="http://www.w3.org/2000/svg">
<path d="M467.333 316.667L588.333 365C593.393 367.015 598.869 367.76 604.282 367.169C609.696 366.578 614.882 364.67 619.388 361.611C623.894 358.553 627.582 354.437 630.129 349.623C632.676 344.81 634.005 339.446 634 334V134C634.005 128.554 632.676 123.19 630.129 118.377C627.582 113.563 623.894 109.447 619.388 106.389C614.882 103.33 609.696 101.422 604.282 100.831C598.869 100.24 593.393 100.985 588.333 103L467.333 151.333V316.667Z" stroke="#F0C17B" stroke-width="66.6667" stroke-linecap="round" stroke-linejoin="round"/>
<path d="M67.3333 34H367.333C393.855 34 419.29 44.5357 438.044 63.2893C456.798 82.043 467.333 107.478 467.333 134V400.667C467.333 409.507 463.821 417.986 457.57 424.237C451.319 430.488 442.841 434 434 434H134C107.478 434 82.043 423.464 63.2893 404.711C44.5357 385.957 34 360.522 34 334V67.3333C34 58.4928 37.5119 50.0143 43.7631 43.7631C50.0143 37.5119 58.4928 34 67.3333 34Z" stroke="#F0C17B" stroke-width="66.6667" stroke-linecap="round" stroke-linejoin="round"/>
</svg>
